HIERARCHY
ROOT RootJoint
{
    OFFSET   0.000000   0.000000   0.000000
    CHANNELS 6 Xposition Yposition Zposition Xrotation Yrotation Zrotation
    JOINT pelvis_lowerback
    {
        OFFSET   0.000000   0.093605   0.000000
        CHANNELS 3 Xrotation Yrotation Zrotation
        JOINT lowerback_torso
        {
            OFFSET   0.000000   0.100000   0.000000
            CHANNELS 3 Xrotation Yrotation Zrotation
            JOINT torso_head
            {
                OFFSET   0.000000   0.282350   0.000000
                CHANNELS 3 Xrotation Yrotation Zrotation
                End Site
                {
                    OFFSET   0.000000   0.192650   0.000000
                }
            }
            JOINT rTorso_Clavicle
            {
                OFFSET  -0.001000   0.157500   0.000000
                CHANNELS 3 Xrotation Yrotation Zrotation
                JOINT rShoulder
                {
                    OFFSET  -0.117647   0.000000   0.000000
                    CHANNELS 3 Xrotation Yrotation Zrotation
                    JOINT rElbow
                    {
                        OFFSET  -0.245000   0.000000   0.000000
                        CHANNELS 3 Xrotation Yrotation Zrotation
                        JOINT rWrist
                        {
                            OFFSET  -0.240000   0.000000   0.000000
                            CHANNELS 3 Xrotation Yrotation Zrotation
                            End Site
                            {
                                OFFSET  -0.116353  -0.002500   0.000000
                            }
                        }
                    }
                }
            }
            JOINT lTorso_Clavicle
            {
                OFFSET   0.001000   0.157500   0.000000
                CHANNELS 3 Xrotation Yrotation Zrotation
                JOINT lShoulder
                {
                    OFFSET   0.117647   0.000000   0.000000
                    CHANNELS 3 Xrotation Yrotation Zrotation
                    JOINT lElbow
                    {
                        OFFSET   0.245000   0.000000   0.000000
                        CHANNELS 3 Xrotation Yrotation Zrotation
                        JOINT lWrist
                        {
                            OFFSET   0.240000   0.000000   0.000000
                            CHANNELS 3 Xrotation Yrotation Zrotation
                            End Site
                            {
                                OFFSET   0.116353  -0.002500   0.000000
                            }
                        }
                    }
                }
            }
        }
    }
    JOINT rHip
    {
        OFFSET  -0.100000  -0.051395   0.000000
        CHANNELS 3 Xrotation Yrotation Zrotation
        JOINT rKnee
        {
            OFFSET   0.000000  -0.410000   0.000000
            CHANNELS 3 Xrotation Yrotation Zrotation
            JOINT rAnkle
            {
                OFFSET   0.000000  -0.390000   0.000000
                CHANNELS 3 Xrotation Yrotation Zrotation
                JOINT rToeJoint
                {
                    OFFSET   0.000000  -0.050000   0.130000
                    CHANNELS 3 Xrotation Yrotation Zrotation
                    End Site
                    {
                        OFFSET  -0.010000   0.002000   0.060000
                    }
                }
            }
        }
    }
    JOINT lHip
    {
        OFFSET   0.100000  -0.051395   0.000000
        CHANNELS 3 Xrotation Yrotation Zrotation
        JOINT lKnee
        {
            OFFSET   0.000000  -0.410000   0.000000
            CHANNELS 3 Xrotation Yrotation Zrotation
            JOINT lAnkle
            {
                OFFSET   0.000000  -0.390000   0.000000
                CHANNELS 3 Xrotation Yrotation Zrotation
                JOINT lToeJoint
                {
                    OFFSET   0.000000  -0.050000   0.130000
                    CHANNELS 3 Xrotation Yrotation Zrotation
                    End Site
                    {
                        OFFSET   0.010000   0.002000   0.060000
                    }
                }
            }
        }
    }
}
MOTION
Frames: 8
Frame Time:   0.008333
 -2.493484   0.888400   3.948357 -13.111455  10.006017  -2.498448  12.973707  -3.610259  -1.672867   1.999029  -6.665338   3.185842   3.413701  -3.268652   3.591850  -5.168864  -8.223038  -4.989723 -23.252523 -15.139886  33.121462   0.102433  86.402445  -0.104583  -5.491265   5.469707  -3.808612  -0.290398  -6.232675   1.557881  -8.794252 -22.324123 -40.522732 179.998667 -79.693889 -179.995796  -3.723472  -6.834773  -1.798918   2.040237 -19.774361  -6.716994  34.777099   0.000686  -0.006950  -9.502845 -10.298711   8.896790 -17.457895  -0.007668  -0.023175  -5.305308   9.042242   8.212454  36.823882  -0.000343   0.000216 -19.389745  -1.833906  -1.981445  -0.423898   0.000025  -0.000942
 -2.494435   0.887621   3.946511 -12.892214   9.940662  -2.203975  12.987402  -3.496257  -1.665839   1.964932  -6.682422   3.255399   3.398899  -3.313643   3.476880  -5.220770  -7.947281  -4.877017 -24.166128 -15.281412  32.516004   0.107120  85.450838  -0.110058  -5.577779   5.493348  -3.834078  -0.373304  -6.111936   1.719680  -9.128160 -22.361974 -40.476839 179.996370 -79.224848 -179.996796  -3.619743  -6.791257  -1.829729   1.748078 -19.730939  -6.915941  34.653372   0.000686  -0.005648 -10.580959 -10.534600   8.332960 -15.850104  -0.003666  -0.017481  -5.977067   9.077545   8.140746  37.525447  -0.001074   0.000923 -19.801862  -1.634072  -2.105048  -0.276749  -0.000046  -0.000417
 -2.495288   0.886961   3.944556 -12.714023   9.842868  -1.860120  13.048832  -3.380543  -1.706077   1.943743  -6.683221   3.280906   3.391930  -3.363246   3.350532  -5.294566  -7.639832  -4.796403 -25.054692 -15.384892  31.929111   0.101473  84.528640  -0.104732  -5.670347   5.352452  -3.963646  -0.488036  -6.012693   1.908779  -9.468845 -22.410719 -40.413197 179.994440 -78.764397 -179.997707  -3.519250  -6.873906  -1.831934   1.427364 -19.678194  -7.192964  34.580084   0.000631  -0.004548 -11.575036 -10.757713   7.790772 -14.351880  -0.000430  -0.013821  -6.656683   9.084917   8.156061  38.241563  -0.002471   0.001656 -20.188911  -1.444155  -2.218102  -0.177646  -0.000200  -0.000138
 -2.496003   0.886441   3.942591 -12.560798   9.730482  -1.476210  13.123817  -3.266442  -1.775859   1.931559  -6.676613   3.271391   3.389814  -3.409925   3.226108  -5.372801  -7.334154  -4.741668 -25.897825 -15.459823  31.371799   0.091820  83.668773  -0.095145  -5.760686   5.195404  -4.110568  -0.609263  -5.929696   2.095011  -9.799181 -22.463252 -40.349846 179.993048 -78.328608 -179.998518  -3.423292  -7.005920  -1.817190   1.108703 -19.612397  -7.525080  34.502576   0.000586  -0.003661 -12.500376 -10.969200   7.270460 -12.977418   0.002031  -0.011276  -7.327239   9.068631   8.246057  38.908311  -0.004092   0.002385 -20.549692  -1.265180  -2.321616  -0.088501  -0.000401   0.000049
 -2.496551   0.886055   3.940642 -12.425417   9.610967  -1.057428  13.203243  -3.156940  -1.865792   1.923499  -6.667304   3.235502   3.389368  -3.453449   3.106517  -5.451539  -7.039271  -4.706753 -26.693710 -15.513527  30.844072   0.081377  82.869918  -0.084661  -5.846658   5.059454  -4.256667  -0.727100  -5.858121   2.270097 -10.112315 -22.516539 -40.291603 179.992043 -77.919473 -179.999306  -3.331613  -7.153314  -1.796836   0.796191 -19.533840  -7.905495  34.411281   0.000552  -0.002950 -13.362781 -11.171059   6.771065 -11.717390   0.003865  -0.009444  -7.985763   9.031897   8.398041  39.519976  -0.005681   0.003079 -20.886318  -1.096603  -2.416462  -0.007412  -0.000613   0.000174
 -2.496911   0.885786   3.938719 -12.304910   9.488175  -0.608520  13.283727  -3.053586  -1.968556   1.917943  -6.657472   3.180452   3.389380  -3.494034   2.992626  -5.529202  -6.758469  -4.687344 -27.443317 -15.550901  30.345078   0.071312  82.127653  -0.074532  -5.928112   4.947710  -4.400667  -0.838120  -5.795207   2.432292 -10.406253 -22.569124 -40.239324 179.991297 -77.536520 179.999905  -3.243948  -7.303163  -1.777054   0.490803 -19.443245  -8.329790  34.305770   0.000522  -0.002380 -14.166176 -11.364769   6.291712 -10.562391   0.005206  -0.008091  -8.629474   8.977466   8.601248  40.079973  -0.007103   0.003705 -21.200511  -0.937945  -2.503442   0.066338  -0.000812   0.000255
 -2.497086   0.884785   3.936879 -12.148885   9.318143  -0.042161  13.309560  -2.946349  -2.161698   1.874798  -6.642371   3.064844   3.390731  -3.531737   2.881223  -5.607644  -6.495547  -4.726945 -28.155150 -15.567419  29.858445   0.063817  81.444349  -0.066660  -6.006149   4.861753  -4.538027  -0.958093  -5.725851   2.632175 -10.689595 -22.617246 -40.172613 179.990964 -77.170281 179.999667  -3.163082  -7.472750  -1.735868   0.158745 -19.314178  -9.031810  33.918205   0.000257  -0.001652 -14.392339 -11.665543   5.704261  -9.562640   0.009104  -0.008291  -9.291785   8.926068   8.762439  40.621046  -0.008595   0.004184 -21.496095  -0.789389  -2.584140   0.117006  -0.000913   0.000263
 -2.497714   0.883827   3.934949 -12.094788   9.046270   0.186660  13.435773  -2.832779  -2.176209   1.920100  -6.535439   3.069519   3.447638  -3.625136   2.797475  -5.639914  -6.091484  -4.733131 -28.947826 -15.494426  29.281473   0.056500  80.532780  -0.058543  -6.008077   4.851588  -4.725533  -1.119894  -5.739421   2.863972 -11.087116 -22.807420 -40.077932 179.988803 -76.788897 179.997768  -3.022374  -7.484631  -1.555575  -0.213581 -19.165083  -9.315758  34.171804  -0.000079  -0.001555 -15.355493 -11.598958   5.339274  -8.521389   0.007909  -0.006515  -9.793476   8.755866   9.479589  40.993899  -0.009748   0.004204 -21.462375  -0.388591  -2.649272   0.097943  -0.000588   0.000161
